# xmcd CD database file
#
# Track frame offsets:
#	150
#	16490
#	37767
#	53772
#	69971
#	82615
#	94526
#	105967
#	120046
#	133804
#	154941
#	169388
#	182932
#	192259
#	207288
#	235330
#	257314
#	273287
#	283724
#	301539
#	315038
#
# Disc length: 4536 seconds
#
# Revision: 0
# Processed by: cddbd v1.5.2PL0 Copyright (c) Steve Scherf et al.
# Submitted via: CDex 1.82
#
DISCID=fb11b615
DTITLE=Various Artist - Men In Jazz (The Ultimate) - CD 1
DYEAR=2012
DGENRE=Jazz
TTITLE0=Babs Gonzales - 'Round About Midnight
TTITLE1=Dr John - Satin Doll
TTITLE2=Kurt Elling - My Love, Effendi
TTITLE3=Bryan Ferry - The Way You Look Tonight
TTITLE4=King Pleasure - That Old Black Magic
TTITLE5=Bobby Troup - (Get Your Kicks On) Route 66
TTITLE6=Mel Torme - Stompin' At The Savoy
TTITLE7=Bing Crosby/Louis Armstrong - Way Down Yonder In New Orleans
TTITLE8=Billy Eckstine and Count Basie - Jelly Jelly
TTITLE9=Count Basie And His Orchestra With Joe Williams - Every Day I Have The Blues
TTITLE10=Jack Jones - Angel Eyes
TTITLE11=Les McCann - Wonder Why
TTITLE12=Matt Dennis - Welcome Mat
TTITLE13=Johnny Hartman - On Green Dolphin Street
TTITLE14=Horace Silver Quintet - Senor Blues (Vocal Version)
TTITLE15=Bob Belden - Sister Moon
TTITLE16=Lou Rawls - Summertime
TTITLE17=Chet Baker - My Funny Valentine
TTITLE18=Hoagy Carmichael - Georgia On My Mind
TTITLE19=Jack Teagarden - Stars Fell On Alabama
TTITLE20=Doky Brothers/Curtis Stigers - My One And Only Love
EXTD=YEAR: 2012
EXTT0=
EXTT1=
EXTT2=
EXTT3=
EXTT4=
EXTT5=
EXTT6=
EXTT7=
EXTT8=
EXTT9=
EXTT10=
EXTT11=
EXTT12=
EXTT13=
EXTT14=
EXTT15=
EXTT16=
EXTT17=
EXTT18=
EXTT19=
EXTT20=
PLAYORDER=
